<?xml version="1.0" encoding="utf-8"?>
<!-- Generator: Adobe Illustrator 23.1.1, SVG Export Plug-In . SVG Version: 6.00 Build 0)  -->
<svg version="1.1" id="Capa_1" xmlns="http://www.w3.org/2000/svg" xmlns:xlink="http://www.w3.org/1999/xlink" x="0px" y="0px"
	 viewBox="0 0 511 129" style="enable-background:new 0 0 511 129;" xml:space="preserve">
<g>
	<path d="M60.13,92.7v-7.71h-7.71v-7.71h-7.71v-7.71h-7.71v-7.71h7.71v-7.71h7.71v-7.71h7.71v-7.71h15.42v7.71h-7.71v7.71h-7.71
		v7.71h-7.71v7.71h7.71v7.71h7.71v7.71h7.71v7.71H60.13z"/>
	<path d="M90.97,84.99h7.71v7.71h-7.71V84.99z M98.68,77.28h7.71v7.71h-7.71V77.28z M106.39,69.57h7.71v7.71h-7.71V69.57z
		 M114.1,61.86h7.71v7.71h-7.71V61.86z M121.8,54.15h7.71v7.71h-7.71V54.15z M129.51,46.44h7.71v7.71h-7.71V46.44z M144.93,38.74
		v7.71h-7.71v-7.71H144.93z"/>
	<path d="M152.64,92.7V54.15h7.71v-7.71h7.71v-7.71h23.13v7.71h7.71v7.71h7.71V92.7h-15.42V77.28h-23.13V92.7H152.64z M168.06,69.57
		h23.13V54.15h-7.71v-7.71h-7.71v7.71h-7.71V69.57z"/>
	<path d="M214.31,92.7V38.74h15.42v7.71h7.71v7.71h7.71v7.71h7.71V38.74h15.42V92.7h-15.42V77.28h-7.71v-7.71h-7.71v-7.71h-7.71
		V92.7H214.31z"/>
	<path d="M275.98,92.7V54.15h7.71v-7.71h7.71v-7.71h23.13v7.71h7.71v7.71h7.71V92.7h-15.42V77.28H291.4V92.7H275.98z M291.4,69.57
		h23.13V54.15h-7.71v-7.71h-7.71v7.71h-7.71V69.57z"/>
	<path d="M337.66,92.7V54.15h7.71v-7.71h7.71v-7.71h23.13v7.71h7.71v7.71h7.71V92.7H376.2V77.28h-23.13V92.7H337.66z M353.07,69.57
		h23.13V54.15h-7.71v-7.71h-7.71v7.71h-7.71V69.57z"/>
	<path d="M407.04,92.7v-7.71h7.71v-7.71h7.71v-7.71h7.71v-7.71h-7.71v-7.71h-7.71v-7.71h-7.71v-7.71h15.42v7.71h7.71v7.71h7.71v7.71
		h7.71v7.71h-7.71v7.71h-7.71v7.71h-7.71v7.71H407.04z"/>
</g>
</svg>
