<svg version="1.1" viewBox="0.0 0.0 602.3385826771654 136.61417322834646" fill="none" stroke="none" stroke-linecap="square" stroke-miterlimit="10" xmlns:xlink="http://www.w3.org/1999/xlink" xmlns="http://www.w3.org/2000/svg"><clipPath id="p.0"><path d="m0 0l602.33856 0l0 136.61417l-602.33856 0l0 -136.61417z" clip-rule="nonzero"/></clipPath><g clip-path="url(#p.0)"><path fill="#000000" fill-opacity="0.0" d="m0 0l602.33856 0l0 136.61417l-602.33856 0z" fill-rule="evenodd"/><path fill="#000000" fill-opacity="0.0" d="m17.56168 21.653543l751.9685 0l0 316.62994l-751.9685 0z" fill-rule="evenodd"/><path fill="#000000" d="m66.561676 97.45354l0 -10.0l-9.999996 0l0 -10.0l-10.0 0l0 -10.0l-10.0 0l0 -10.0l10.0 0l0 -10.0l10.0 0l0 -10.0l9.999996 0l0 -9.999998l20.0 0l0 9.999998l-10.0 0l0 10.0l-10.0 0l0 10.0l-9.999996 0l0 10.0l9.999996 0l0 10.0l10.0 0l0 10.0l10.0 0l0 10.0l-20.0 0zm109.99992 -70.0l0 9.999998l-10.0 0l0 -9.999998l10.0 0zm-20.0 9.999998l10.0 0l0 10.0l-10.0 0l0 -10.0zm-10.0 10.0l10.0 0l0 10.0l-10.0 0l0 -10.0zm-10.0 10.0l10.0 0l0 10.0l-10.0 0l0 -10.0zm-10.0 10.0l10.0 0l0 10.0l-10.0 0l0 -10.0zm-10.0 10.0l10.0 0l0 10.0l-10.0 0l0 -10.0zm-10.0 10.0l10.0 0l0 10.0l-10.0 0l0 -10.0zm79.99992 10.0l0 -50.0l10.0 0l0 -10.0l10.0 0l0 -9.999998l30.0 0l0 9.999998l10.0 0l0 10.0l10.0 0l0 50.0l-20.0 0l0 -20.0l-30.0 0l0 20.0l-20.0 0zm20.0 -30.0l30.0 0l0 -20.0l-10.0 0l0 -10.0l-10.0 0l0 10.0l-10.0 0l0 20.0zm59.99994 30.0l0 -70.0l19.99997 0l0 9.999998l10.0 0l0 10.0l10.0 0l0 10.0l10.0 0l0 -29.999998l20.0 0l0 70.0l-20.0 0l0 -20.0l-10.0 0l0 -10.0l-10.0 0l0 -10.0l-10.0 0l0 40.0l-19.99997 0zm79.99991 0l0 -50.0l10.0 0l0 -10.0l10.0 0l0 -9.999998l30.0 0l0 9.999998l10.0 0l0 10.0l10.0 0l0 50.0l-20.0 0l0 -20.0l-30.0 0l0 20.0l-20.0 0zm20.0 -30.0l30.0 0l0 -20.0l-10.0 0l0 -10.0l-10.0 0l0 10.0l-10.0 0l0 20.0zm59.99994 30.0l0 -50.0l10.0 0l0 -10.0l10.0 0l0 -9.999998l30.0 0l0 9.999998l10.0 0l0 10.0l10.0 0l0 50.0l-20.0 0l0 -20.0l-30.0 0l0 20.0l-20.0 0zm20.0 -30.0l30.0 0l0 -20.0l-10.0 0l0 -10.0l-10.0 0l0 10.0l-10.0 0l0 20.0zm69.99997 30.0l0 -10.0l10.0 0l0 -10.0l10.0 0l0 -10.0l10.0 0l0 -10.0l-10.0 0l0 -10.0l-10.0 0l0 -10.0l-10.0 0l0 -9.999998l20.0 0l0 9.999998l10.0 0l0 10.0l10.0 0l0 10.0l10.0 0l0 10.0l-10.0 0l0 10.0l-10.0 0l0 10.0l-10.0 0l0 10.0l-20.0 0z" fill-rule="nonzero"/></g></svg>