<svg viewBox="0 0 602.339 136.614" fill="none" stroke-linecap="square" stroke-miterlimit="10" xmlns="http://www.w3.org/2000/svg">
  <clipPath id="a">
    <path d="M0 0h602.339v136.614H0V0z"/>
  </clipPath>
  <g clip-path="url(#a)">
    <path fill="none" d="M0 0h602.339v136.614H0z"/>
    <path fill="none" d="M17.562 21.654H769.53v316.63H17.562z"/>
    <path fill="#000" d="M66.562 97.454v-10h-10v-10h-10v-10h-10v-10h10v-10h10v-10h10v-10h20v10h-10v10h-10v10h-10v10h10v10h10v10h10v10h-20zm110-70v10h-10v-10h10zm-20 10h10v10h-10v-10zm-10 10h10v10h-10v-10zm-10 10h10v10h-10v-10zm-10 10h10v10h-10v-10zm-10 10h10v10h-10v-10zm-10 10h10v10h-10v-10zm80 10v-50h10v-10h10v-10h30v10h10v10h10v50h-20v-20h-30v20h-20zm20-30h30v-20h-10v-10h-10v10h-10v20zm60 30v-70h20v10h10v10h10v10h10v-30h20v70h-20v-20h-10v-10h-10v-10h-10v40h-20zm80 0v-50h10v-10h10v-10h30v10h10v10h10v50h-20v-20h-30v20h-20zm20-30h30v-20h-10v-10h-10v10h-10v20zm60 30v-50h10v-10h10v-10h30v10h10v10h10v50h-20v-20h-30v20h-20zm20-30h30v-20h-10v-10h-10v10h-10v20zm70 30v-10h10v-10h10v-10h10v-10h-10v-10h-10v-10h-10v-10h20v10h10v10h10v10h10v10h-10v10h-10v10h-10v10h-20z"/>
  </g>
</svg>
